PathFileType	4	(X/Y/Z)	C:\Users\86182\Documents\cortex\Trimmed_M4_L16.trc
DataRate	CameraRate	NumFrames	NumMarkers	Units	OrigDataRate	OrigDataStartFrame	OrigNumFrames
100.00	100.00	       141	2	mm	100.00	181	       901
Frame#	Time	gripper			box			
		X1	Y1	Z1	X2	Y2	Z2	

181	1.800	276.46869	149.35275	226.24229	278.25522	146.24049	91.36532	
182	1.810	276.45834	149.35869	226.67014	278.23083	146.23277	91.79301	
183	1.820	276.41141	149.37401	227.11734	278.21194	146.23126	92.22850	
184	1.830	276.33008	149.39890	227.58270	278.19760	146.23460	92.67216	
185	1.840	276.23776	149.42838	228.05658	278.18707	146.24258	93.12126	
186	1.850	276.15714	149.45769	228.52870	278.17862	146.25497	93.57129	
187	1.860	276.08572	149.48764	228.99736	278.16907	146.27023	94.01810	
188	1.870	276.00751	149.52148	229.46602	278.15579	146.28711	94.45933	
189	1.880	275.92245	149.55768	229.93219	278.13782	146.30629	94.89480	
190	1.890	275.84717	149.59053	230.38724	278.11453	146.32889	95.32574	
191	1.900	275.78702	149.61794	230.82881	278.08487	146.35391	95.75309	
192	1.910	275.72110	149.64467	231.26714	278.04819	146.37820	96.17638	
193	1.920	275.62064	149.67728	231.71553	278.00687	146.39888	96.59489	
194	1.930	275.47989	149.71721	232.17667	277.96597	146.41504	97.00961	
195	1.940	275.32101	149.76036	232.64253	277.92914	146.42786	97.42314	
196	1.950	275.17358	149.80157	233.10431	277.89612	146.43941	97.83839	
197	1.960	275.05869	149.83714	233.55670	277.86569	146.45135	98.25697	
198	1.970	274.98660	149.86452	233.99731	277.83920	146.46422	98.67860	
199	1.980	274.95911	149.88275	234.42708	277.82126	146.47765	99.10233	
200	1.990	274.97220	149.89284	234.84972	277.81699	146.49091	99.52843	
201	2.000	275.01895	149.89697	235.26913	277.82877	146.50400	99.95911	
202	2.010	275.09119	149.89703	235.68787	277.85434	146.51869	100.39731	
203	2.020	275.17926	149.89435	236.10770	277.88788	146.53784	100.84393	
204	2.030	275.27057	149.89075	236.53085	277.92313	146.56310	101.29613	
205	2.040	275.34750	149.89006	236.96190	277.95566	146.59334	101.75008	
206	2.050	275.38937	149.89771	237.40781	277.98178	146.62570	102.20467	
207	2.060	275.38519	149.91701	237.87126	277.99722	146.65775	102.66052	
208	2.070	275.34320	149.94623	238.34564	277.99796	146.68866	103.11611	
209	2.080	275.28186	149.98053	238.82054	277.98303	146.71822	103.56732	
210	2.090	275.21588	150.01552	239.28882	277.95474	146.74554	104.01147	
211	2.100	275.15350	150.04858	239.74664	277.91650	146.76939	104.44974	
212	2.110	275.09909	150.07791	240.19165	277.87146	146.78964	104.88506	
213	2.120	275.05475	150.10170	240.62325	277.82208	146.80792	105.31926	
214	2.130	275.02008	150.11867	241.04315	277.76956	146.82585	105.75146	
215	2.140	274.99280	150.12927	241.45546	277.71457	146.84282	106.17845	
216	2.150	274.96951	150.13516	241.86612	277.66013	146.85614	106.59768	
217	2.160	274.94681	150.13719	242.28049	277.61374	146.86345	107.01037	
218	2.170	274.92255	150.13452	242.70016	277.58545	146.86453	107.42099	
219	2.180	274.89865	150.12601	243.12350	277.58127	146.86147	107.83417	
220	2.190	274.88049	150.11220	243.54959	277.59937	146.85692	108.25191	
221	2.200	274.87161	150.09567	243.97952	277.63290	146.85217	108.67396	
222	2.210	274.87048	150.07903	244.41403	277.67651	146.84654	109.09966	
223	2.220	274.87344	150.06285	244.85223	277.72791	146.83884	109.52890	
224	2.230	274.87863	150.04599	245.29337	277.78445	146.82961	109.96171	
225	2.240	274.88489	150.02782	245.73737	277.84021	146.82095	110.39726	
226	2.250	274.88928	150.00941	246.18396	277.88776	146.81468	110.83246	
227	2.260	274.88736	149.99242	246.63162	277.92178	146.81117	111.26196	
228	2.270	274.87634	149.97717	247.07681	277.94101	146.80969	111.68199	
229	2.280	274.85623	149.96269	247.51515	277.94754	146.80963	112.09450	
230	2.290	274.82907	149.94850	247.94469	277.94409	146.81140	112.50512	
231	2.300	274.79819	149.93602	248.36636	277.93137	146.81580	112.91666	
232	2.310	274.76648	149.92737	248.78133	277.90851	146.82246	113.32742	
233	2.320	274.73483	149.92317	249.18967	277.87576	146.82965	113.73529	
234	2.330	274.70346	149.92206	249.59241	277.83612	146.83566	114.14095	
235	2.340	274.67487	149.92255	249.99295	277.79401	146.84032	114.54773	
236	2.350	274.65308	149.92404	250.39584	277.75296	146.84436	114.95956	
237	2.360	274.64032	149.92599	250.80457	277.71564	146.84792	115.37800	
238	2.370	274.63519	149.92801	251.22029	277.68546	146.85052	115.80088	
239	2.380	274.63455	149.93044	251.64180	277.66528	146.85193	116.22472	
240	2.390	274.63632	149.93365	252.06712	277.65604	146.85214	116.64887	
241	2.400	274.64047	149.93756	252.49567	277.65808	146.85094	117.07655	
242	2.410	274.64813	149.94193	252.92813	277.67197	146.84851	117.51041	
243	2.420	274.65985	149.94658	253.36412	277.69623	146.84610	117.94838	
244	2.430	274.67465	149.95129	253.80072	277.72562	146.84500	118.38547	
245	2.440	274.69080	149.95595	254.23491	277.75320	146.84604	118.81938	
246	2.450	274.70670	149.96077	254.66667	277.77362	146.85028	119.25224	
247	2.460	274.72095	149.96609	255.09859	277.78448	146.85896	119.68678	
248	2.470	274.73224	149.97235	255.53258	277.78391	146.87210	120.12293	
249	2.480	274.73904	149.98012	255.96756	277.76929	146.88771	120.55817	
250	2.490	274.73990	149.98997	256.40045	277.73932	146.90312	120.99034	
251	2.500	274.73492	150.00218	256.82932	277.69623	146.91661	121.41949	
252	2.510	274.72644	150.01605	257.25446	277.64566	146.92714	121.84724	
253	2.520	274.71762	150.02971	257.67657	277.59451	146.93317	122.27488	
254	2.530	274.71091	150.04150	258.09525	277.54727	146.93344	122.70172	
255	2.540	274.70676	150.05159	258.51004	277.50473	146.92836	123.12540	
256	2.550	274.70432	150.06134	258.92285	277.46591	146.91960	123.54478	
257	2.560	274.70355	150.07130	259.33701	277.43124	146.90930	123.96197	
258	2.570	274.70578	150.08037	259.75476	277.40405	146.89961	124.38129	
259	2.580	274.71225	150.08670	260.17685	277.38803	146.89200	124.80662	
260	2.590	274.72269	150.08955	260.60336	277.38336	146.88687	125.23922	
261	2.600	274.73563	150.09053	261.03442	277.38693	146.88423	125.67761	
262	2.610	274.75021	150.09239	261.47015	277.39478	146.88441	126.11976	
263	2.620	274.76697	150.09642	261.91068	277.40329	146.88847	126.56562	
264	2.630	274.78644	150.10199	262.35504	277.40915	146.89763	127.01682	
265	2.640	274.80743	150.10849	262.80093	277.40964	146.91241	127.47291	
266	2.650	274.82669	150.11641	263.24530	277.40311	146.93169	127.92915	
267	2.660	274.84100	150.12648	263.68588	277.38916	146.95317	128.37976	
268	2.670	274.84924	150.13847	264.12155	277.36786	146.97444	128.82280	
269	2.680	274.85300	150.15067	264.55191	277.33865	146.99309	129.26025	
270	2.690	274.85449	150.16069	264.97644	277.30023	147.00682	129.69402	
271	2.700	274.85468	150.16756	265.39441	277.25214	147.01474	130.12357	
272	2.710	274.85269	150.17255	265.80569	277.19632	147.01797	130.54727	
273	2.720	274.84747	150.17741	266.21191	277.13687	147.01851	130.96532	
274	2.730	274.83963	150.18214	266.61536	277.07840	147.01743	131.37990	
275	2.740	274.83081	150.18497	267.01807	277.02643	147.01454	131.79306	
276	2.750	274.82178	150.18399	267.42209	276.98703	147.00977	132.20529	
277	2.760	274.81110	150.17827	267.83069	276.96371	147.00397	132.61661	
278	2.770	274.79636	150.16762	268.24658	276.95450	146.99850	133.02777	
279	2.780	274.77737	150.15285	268.66995	276.95425	146.99478	133.44063	
280	2.790	274.75732	150.13625	269.09924	276.96063	146.99408	133.85764	
281	2.800	274.74005	150.12086	269.53265	276.97516	146.99638	134.28093	
282	2.810	274.72729	150.10883	269.96887	276.99899	146.99953	134.71094	
283	2.820	274.71869	150.10048	270.40750	277.03003	147.00082	135.14633	
284	2.830	274.71198	150.09512	270.84918	277.06503	146.99951	135.58530	
285	2.840	274.70361	150.09258	271.29431	277.10153	146.99716	136.02667	
286	2.850	274.69052	150.09404	271.74200	277.13654	146.99588	136.46927	
287	2.860	274.67194	150.10138	272.19147	277.16608	146.99709	136.91129	
288	2.870	274.64886	150.11569	272.64197	277.18625	147.00143	137.35181	
289	2.880	274.62201	150.13672	273.09180	277.19409	147.00890	137.79083	
290	2.890	274.59137	150.16327	273.53888	277.18832	147.01959	138.22780	
291	2.900	274.55753	150.19342	273.98169	277.17026	147.03427	138.66190	
292	2.910	274.52173	150.22443	274.41910	277.14301	147.05330	139.09351	
293	2.920	274.48480	150.25272	274.85089	277.10999	147.07550	139.52325	
294	2.930	274.44730	150.27547	275.27875	277.07486	147.09871	139.94930	
295	2.940	274.41034	150.29202	275.70477	277.04208	147.12102	140.36920	
296	2.950	274.37466	150.30292	276.12921	277.01535	147.14165	140.78445	
297	2.960	274.33948	150.30875	276.55194	276.99490	147.16090	141.19991	
298	2.970	274.30499	150.31033	276.97400	276.97842	147.17938	141.61856	
299	2.980	274.27396	150.30896	277.39740	276.96439	147.19704	142.03955	
300	2.990	274.24915	150.30588	277.82352	276.95367	147.21297	142.46152	
301	3.000	274.23221	150.30193	278.25244	276.94733	147.22614	142.88568	
302	3.010	274.22498	150.29753	278.68268	276.94516	147.23561	143.31412	
303	3.020	274.22888	150.29269	279.11267	276.94809	147.24014	143.74680	
304	3.030	274.24350	150.28720	279.54227	276.95935	147.23943	144.18152	
305	3.040	274.26685	150.28130	279.97250	276.98126	147.23555	144.61511	
306	3.050	274.29553	150.27589	280.40356	277.01169	147.23100	145.04524	
307	3.060	274.32556	150.27194	280.83447	277.04602	147.22595	145.47198	
308	3.070	274.35443	150.26971	281.26447	277.08203	147.21927	145.89694	
309	3.080	274.38211	150.26904	281.69373	277.11993	147.21161	146.32040	
310	3.090	274.40887	150.26979	282.12192	277.15668	147.20602	146.74173	
311	3.100	274.43317	150.27211	282.54727	277.18402	147.20609	147.16122	
312	3.110	274.45227	150.27611	282.96786	277.19476	147.21431	147.58017	
313	3.120	274.46393	150.28151	283.38321	277.18851	147.23064	147.99863	
314	3.130	274.46725	150.28828	283.79468	277.17014	147.25195	148.41592	
315	3.140	274.46185	150.29703	284.20453	277.14374	147.27495	148.83286	
316	3.150	274.44806	150.30826	284.61462	277.10910	147.29930	149.25110	
317	3.160	274.42841	150.32146	285.02536	277.06442	147.32660	149.67075	
318	3.170	274.40823	150.33484	285.43600	277.01123	147.35625	150.09003	
319	3.180	274.39301	150.34660	285.84665	276.95584	147.38422	150.50766	
320	3.190	274.38516	150.35620	286.25861	276.90524	147.40643	150.92407	
321	3.200	274.38354	150.36423	286.67221	276.86301	147.42140	151.34045	
